# xmcd
#
# Track frame offsets: 
#        150
#        17746
#        38056
#        55687
#        80886
#        106963
#        129323
#        149922
#        167850
#        186972
#        204608
#
# Disc length: 2918 seconds
#
# Revision: 0
# Processed by: cddbd v1.5.2PL0 Copyright (c) Steve Scherf et al.
# Submitted via: ExactAudioCopy v0.99pb3
#
DISCID=9f0b640b
DTITLE=Terry Garland and Li'l Ronnie - Live At The Canal Club
DYEAR=2010
DGENRE=Blues
TTITLE0=Hard Weather
TTITLE1=Stagger Lee
TTITLE2=Upside Your Head
TTITLE3=Trouble On The Way
TTITLE4=Can't Be Satisfied
TTITLE5=Bettin' On My Baby
TTITLE6=It's A Sin
TTITLE7=Think Big
TTITLE8=Life's Changes
TTITLE9=Crazy Mixed Up World
TTITLE10=Dude Boy Boogie
EXTD=
EXTT0=
EXTT1=
EXTT2=
EXTT3=
EXTT4=
EXTT5=
EXTT6=
EXTT7=
EXTT8=
EXTT9=
EXTT10=
PLAYORDER=
